<?xml version="1.0" encoding="iso-8859-1"?><!-- Generator: Adobe Illustrator 19.1.1, SVG Export Plug-In . SVG Version: 6.00 Build 0)  --><svg xmlns="http://www.w3.org/2000/svg" xmlns:xlink="http://www.w3.org/1999/xlink" viewBox="0 0 48 48" width="100px" height="100px"><path style="fill:#C5CAE9;" d="M25,4C13.954,4,5,12.954,5,24c0,11.046,8.954,20,20,20c11.046,0,20-8.954,20-20  C45,12.954,36.046,4,25,4z M25,40c-8.837,0-16-7.163-16-16c0-8.837,7.163-16,16-16c8.837,0,16,7.163,16,16  C41,32.837,33.837,40,25,40z"/><path style="fill:#9FA8DA;" d="M25,6C15.25,6,7,15.917,7,24c0,11.046,6.954,20,18,20c11.046,0,20-8.954,20-20  C45,12.954,36.046,6,25,6z M25,40c-8.837,0-16-7.163-16-16S16.163,8,25,8s16,7.163,16,16S33.837,40,25,40z"/><path style="fill:#C5CAE9;" d="M25,8c9.417,0,16,8.083,16,16c0,8.837-7.163,16-16,16c-7.333,0-16-6.059-16-16  c0,9.941,6.059,18,16,18c9.941,0,18-8.059,18-18C43,15.083,34.941,8,25,8z"/><g><path style="fill:#7986CB;" d="M9,24c0-8.837,7.163-16,16-16c9.941,0,18,7.083,18,16c0-9.941-8.059-18-18-18   C15.059,6,7,14.059,7,24c0,9.941,8.059,18,18,18C15.059,42,9,33.941,9,24z"/><path style="fill:#7986CB;" d="M9.096,25.721c0.012,0.109,0.034,0.21,0.048,0.317C9.13,25.932,9.107,25.829,9.096,25.721z"/></g><polygon style="fill:#9FA8DA;" points="25,8 21.708,22.396 25,24 28.354,22.396 "/><polygon style="fill:#E8EAF6;" points="25,8 21.708,22.396 25,24 "/><polygon style="fill:#C5CAE9;" points="11,32 25,27.687 25,24 21.708,22.396 "/><polygon style="fill:#7986CB;" points="11,32 25,27.687 25,24 "/><polygon style="fill:#C5CAE9;" points="39,32.063 25,27.687 25,24 28.354,22.396 "/><polygon style="fill:#9FA8DA;" points="39,32.063 25,27.687 25,24 "/></svg>